# xmcd CD database file
# Copyright (C) 1993-1998 Ti Kan
#
# Track frame offsets:
#	150
#	26295
#	48827
#	78685
#	97947
#	116012
#	139872
#	161667
#	182137
#	198297
#	220470
#	238250
#	257150
#
# Disc length: 3496 seconds
#
# Revision: 1
# Processed by: cddbd v1.4b41PL1 Copyright (c) Steve Scherf et al.
# Submitted via: QuintessentialCD v1.0 (c) 1998 Paul Quinn
#
DISCID=b50da60d
DTITLE=B.B.King - Deuces Wild
DYEAR=1900
DGENRE=
TTITLE0=If You Love me
TTITLE1=The Thrill is Gone
TTITLE2=Rock me Baby
TTITLE3=Please, Send me Someone to Love
TTITLE4=Baby, I love You
TTITLE5=Ain't Nobody Home
TTITLE6=There must be a better World somewhere
TTITLE7=Confessin' The Blues
TTITLE8=Paying the Cost to be the Boss
TTITLE9=Dangerous Mood
TTITLE10=Keep it Coming
TTITLE11=Crying won't Help you, Babe
TTITLE12=Night Life
EXTD=
EXTT0=
EXTT1=
EXTT2=
EXTT3=
EXTT4=
EXTT5=
EXTT6=
EXTT7=
EXTT8=
EXTT9=
EXTT10=
EXTT11=
EXTT12=
PLAYORDER=
